<svg xmlns="http://www.w3.org/2000/svg" viewBox="0 0 256 256" role="img" aria-label="Overthink">
  <rect width="256" height="256" rx="56" fill="#101418"/>
  <path d="M64 134c0-41 26-72 64-72s64 31 64 72-26 72-64 72-64-31-64-72Z" fill="#2dd4bf"/>
  <path d="M89 128c0-26 16-45 39-45s39 19 39 45-16 45-39 45-39-19-39-45Z" fill="#101418"/>
  <path d="M112 124c0-12 7-20 16-20s16 8 16 20-7 20-16 20-16-8-16-20Z" fill="#f8fafc"/>
  <path d="M54 62l30-22 12 31-26 15-16-24Z" fill="#fbbf24"/>
  <path d="M202 62l-30-22-12 31 26 15 16-24Z" fill="#fbbf24"/>
</svg>
